<?xml version="1.0" encoding="UTF-8"?>
<svg id="Layer_1" xmlns="http://www.w3.org/2000/svg" xmlns:xlink="http://www.w3.org/1999/xlink" version="1.1" viewBox="0 0 347.48 100">
  <!-- Generator: Adobe Illustrator 30.1.0, SVG Export Plug-In . SVG Version: 2.1.1 Build 136)  -->
  <defs>
    <style>
      .st0 {
        fill: #f69220;
      }

      .st0, .st1, .st2 {
        fill-rule: evenodd;
      }

      .st3 {
        fill: url(#linear-gradient2);
      }

      .st4 {
        fill: #f16623;
      }

      .st5, .st6 {
        fill: #9f9d9e;
      }

      .st7 {
        isolation: isolate;
      }

      .st8 {
        font-size: 14.76px;
      }

      .st8, .st9 {
        font-family: NotoSansThai-Medium, 'Noto Sans Thai';
        font-weight: 500;
      }

      .st1 {
        fill: url(#linear-gradient);
      }

      .st6 {
        stroke: #9f9d9e;
        stroke-miterlimit: 10;
        stroke-width: .22px;
      }

      .st2 {
        fill: url(#linear-gradient1);
      }

      .st10 {
        fill: #f06523;
      }

      .st9 {
        font-size: 14px;
      }
    </style>
    <linearGradient id="linear-gradient" x1="-1878.68" y1="118.2" x2="-1869.26" y2="118.2" gradientTransform="translate(-1025.01 38.4) rotate(177.91) scale(.64 .66) skewX(-.11)" gradientUnits="userSpaceOnUse">
      <stop offset="0" stop-color="#fcee40"/>
      <stop offset=".04" stop-color="#fce333"/>
      <stop offset=".12" stop-color="#fcd321"/>
      <stop offset=".2" stop-color="#fcc915"/>
      <stop offset=".28" stop-color="#fcc612"/>
      <stop offset=".67" stop-color="#f18f40"/>
      <stop offset=".89" stop-color="#ed693b"/>
      <stop offset="1" stop-color="#e73e38"/>
    </linearGradient>
    <linearGradient id="linear-gradient1" x1="-1680.94" y1="100.48" x2="-1672.92" y2="100.48" gradientTransform="translate(-962.06 246.57) rotate(167.69) scale(.7 .81) skewX(-.89)" gradientUnits="userSpaceOnUse">
      <stop offset="0" stop-color="#fcee40"/>
      <stop offset=".04" stop-color="#fce333"/>
      <stop offset=".12" stop-color="#fcd321"/>
      <stop offset=".2" stop-color="#fcc915"/>
      <stop offset=".28" stop-color="#fcc612"/>
      <stop offset=".67" stop-color="#f18f40"/>
      <stop offset=".89" stop-color="#ed693b"/>
      <stop offset="1" stop-color="#e73e38"/>
    </linearGradient>
    <linearGradient id="linear-gradient2" x1="3070.24" y1="110.98" x2="3102.86" y2="110.98" gradientTransform="translate(-613.13 -127.1) rotate(8.94) scale(.25 -.62) skewX(5.12)" gradientUnits="userSpaceOnUse">
      <stop offset="0" stop-color="#fcee40"/>
      <stop offset=".04" stop-color="#fce333"/>
      <stop offset=".12" stop-color="#fcd321"/>
      <stop offset=".2" stop-color="#fcc915"/>
      <stop offset=".28" stop-color="#fcc612"/>
      <stop offset=".67" stop-color="#f18f40"/>
      <stop offset=".89" stop-color="#ed693b"/>
      <stop offset="1" stop-color="#e73e38"/>
    </linearGradient>
  </defs>
  <g class="st7">
    <g>
      <g>
        <g>
          <path class="st6" d="M114.27-47.32c-.88,0-1.65-.19-2.29-.57s-1.14-.92-1.48-1.61-.52-1.5-.52-2.44.17-1.73.51-2.44.82-1.25,1.44-1.64,1.35-.59,2.19-.59c.51,0,1.01.08,1.49.25.48.17.91.43,1.29.79s.68.82.9,1.4c.22.57.33,1.26.33,2.08v.63h-7.17v-1.32h6.26l-.83.43c0-.55-.09-1.04-.26-1.46-.17-.42-.43-.75-.76-.99s-.75-.35-1.26-.35-.93.12-1.28.36-.62.56-.81.95c-.18.39-.28.82-.28,1.29v.9c0,.62.11,1.14.32,1.56.21.43.51.75.89.96.38.22.82.33,1.33.33.33,0,.63-.05.9-.14.27-.09.5-.24.7-.43s.34-.42.45-.7l1.66.39c-.14.46-.39.87-.73,1.22-.34.35-.76.63-1.27.82-.51.2-1.08.29-1.73.29v.03h0Z"/>
          <path class="st6" d="M125.76-53.32v1.53h-5.32v-1.53h5.32Z"/>
          <path class="st6" d="M130.47-59.49v11.98h-1.83v-11.98h1.83ZM132.53-47.51h-2.96v-1.61h2.86c.91,0,1.66-.17,2.26-.51s1.05-.83,1.35-1.49c.3-.66.45-1.46.45-2.4s-.15-1.73-.45-2.38c-.3-.65-.74-1.14-1.33-1.48s-1.32-.51-2.19-.51h-3.02v-1.61h3.14c1.18,0,2.19.24,3.03.72s1.49,1.16,1.94,2.05c.45.89.68,1.96.68,3.21s-.23,2.32-.68,3.22-1.11,1.58-1.97,2.07c-.86.48-1.9.72-3.12.72h.01Z"/>
          <path class="st6" d="M144.58-47.32c-.84,0-1.58-.19-2.21-.58s-1.12-.93-1.47-1.62c-.35-.7-.52-1.51-.52-2.43s.17-1.75.52-2.45.84-1.24,1.47-1.63,1.37-.58,2.21-.58,1.59.19,2.22.58,1.12.93,1.47,1.63.52,1.52.52,2.45-.17,1.73-.52,2.43-.84,1.24-1.47,1.62c-.63.39-1.37.58-2.22.58ZM144.58-48.82c.55,0,1-.14,1.35-.43s.62-.67.8-1.14c.17-.47.26-1,.26-1.56s-.09-1.1-.26-1.58-.44-.86-.8-1.15-.81-.43-1.35-.43-.99.14-1.34.43c-.35.29-.62.67-.79,1.15s-.26,1-.26,1.58.09,1.09.26,1.56.44.85.79,1.14c.35.29.8.43,1.34.43Z"/>
          <path class="st6" d="M152.93-52.83v5.32h-1.77v-8.99h1.69l.02,2.2h-.18c.26-.8.64-1.39,1.14-1.76s1.1-.55,1.81-.55c.61,0,1.15.13,1.6.39.46.26.81.64,1.07,1.14.26.5.39,1.12.39,1.87v5.71h-1.77v-5.49c0-.65-.17-1.16-.51-1.52s-.8-.55-1.39-.55c-.4,0-.75.09-1.07.26-.32.17-.57.43-.75.76s-.27.74-.27,1.21h-.01Z"/>
          <path class="st6" d="M164-47.3c-.57,0-1.08-.11-1.54-.32-.46-.21-.83-.52-1.09-.93-.27-.41-.4-.91-.4-1.5,0-.51.1-.93.29-1.25s.46-.59.8-.78c.33-.19.71-.34,1.12-.43.41-.1.83-.17,1.25-.22.53-.06.96-.12,1.29-.16.33-.04.58-.11.74-.2s.24-.25.24-.46v-.05c0-.34-.06-.62-.19-.85-.13-.23-.32-.41-.58-.54-.25-.13-.57-.19-.95-.19s-.73.06-1.01.18-.51.27-.68.46-.3.38-.39.59l-1.67-.43c.2-.54.5-.97.88-1.29.38-.33.82-.57,1.31-.72.49-.15,1-.22,1.53-.22.36,0,.75.04,1.16.13s.79.24,1.15.47.65.54.88.95.34.94.34,1.59v5.97h-1.71v-1.23h-.09c-.12.23-.29.46-.52.68-.23.22-.52.4-.87.54-.35.14-.77.21-1.26.21h-.03ZM164.39-48.73c.48,0,.9-.09,1.24-.28.34-.19.61-.44.79-.75s.27-.64.27-.99v-1.15c-.06.06-.19.12-.37.17-.18.05-.38.1-.62.14-.23.04-.45.07-.67.1-.21.03-.39.05-.53.06-.33.04-.64.12-.91.22-.28.1-.5.25-.66.43-.16.19-.25.44-.25.75,0,.28.07.52.22.72.15.19.35.34.6.43.25.1.54.14.88.14h0Z"/>
          <path class="st6" d="M175.09-56.5v1.44h-4.87v-1.44s4.87,0,4.87,0ZM171.53-58.64h1.77v8.7c0,.36.08.62.23.79s.4.25.75.25c.09,0,.21-.01.36-.03s.28-.04.39-.06l.31,1.42c-.19.06-.39.11-.6.14s-.43.04-.64.04c-.81,0-1.45-.21-1.9-.63s-.68-1.01-.68-1.77v-8.85h0Z"/>
          <path class="st6" d="M178.16-57.87c-.31,0-.57-.1-.78-.31-.22-.21-.33-.45-.33-.74s.11-.54.33-.75c.22-.2.48-.31.78-.31s.57.1.79.31c.22.2.33.45.33.75s-.11.54-.33.74-.48.31-.79.31ZM177.26-47.51v-8.99h1.77v8.99h-1.77Z"/>
          <path class="st6" d="M185.61-47.32c-.84,0-1.58-.19-2.21-.58s-1.12-.93-1.47-1.62c-.35-.7-.52-1.51-.52-2.43s.17-1.75.52-2.45.84-1.24,1.47-1.63,1.37-.58,2.21-.58,1.58.19,2.22.58c.63.39,1.12.93,1.47,1.63s.52,1.52.52,2.45-.17,1.73-.52,2.43-.84,1.24-1.47,1.62c-.63.39-1.37.58-2.22.58ZM185.61-48.82c.55,0,1-.14,1.35-.43.36-.29.62-.67.8-1.14s.26-1,.26-1.56-.09-1.1-.26-1.58-.44-.86-.8-1.15-.81-.43-1.35-.43-.99.14-1.34.43c-.35.29-.62.67-.79,1.15s-.26,1-.26,1.58.09,1.09.26,1.56.44.85.79,1.14c.35.29.8.43,1.34.43Z"/>
          <path class="st6" d="M193.96-52.83v5.32h-1.77v-8.99h1.69l.02,2.2h-.19c.26-.8.64-1.39,1.14-1.76s1.1-.55,1.81-.55c.61,0,1.14.13,1.6.39.46.26.81.64,1.07,1.14.26.5.39,1.12.39,1.87v5.71h-1.77v-5.49c0-.65-.17-1.16-.51-1.52-.34-.36-.8-.55-1.39-.55-.4,0-.75.09-1.07.26-.32.17-.57.43-.75.76s-.27.74-.27,1.21Z"/>
        </g>
        <g>
          <g>
            <path class="st10" d="M109.98-92.14h3.66l13.42,19.87v-19.87h3.88v26.36h-3.7l-13.42-19.87v19.87h-3.85v-26.36h0Z"/>
            <path class="st10" d="M137.53-67.17c-1.25-1.31-1.87-3.05-1.87-5.24v-11.46h3.81v11.31c0,2.89,1.45,4.34,4.34,4.34,2.54,0,4.52-1.14,5.96-3.43v-12.22h3.81v18.1h-3.7v-2.56c-.86,1.08-1.87,1.87-3.04,2.37s-2.43.76-3.79.76c-2.44,0-4.28-.65-5.52-1.96h0Z"/>
            <path class="st10" d="M178.23-65.68c-1.41-.31-2.51-.74-3.32-1.26v-3.24c.98.58,2.11,1.05,3.39,1.41,1.28.37,2.53.55,3.73.55,1.36,0,2.35-.16,2.98-.49.63-.33.94-.85.94-1.58,0-.55-.15-1-.43-1.34-.29-.34-.78-.65-1.47-.92-.69-.28-1.73-.6-3.11-.98-1.48-.43-2.66-.86-3.53-1.3s-1.52-1-1.96-1.68-.66-1.56-.66-2.64c0-1.73.68-3.05,2.05-3.94,1.37-.89,3.21-1.34,5.53-1.34,1.21,0,2.39.11,3.54.34,1.16.23,2.09.54,2.79.94v3.17c-.73-.43-1.63-.77-2.7-1.02-1.07-.25-2.16-.38-3.26-.38-1.33,0-2.35.16-3.05.49s-1.06.91-1.06,1.73c0,.53.15.96.45,1.28.3.33.79.61,1.45.85.67.24,1.73.55,3.19.92,2.29.63,3.88,1.37,4.77,2.22.89.85,1.34,2.04,1.34,3.54s-.64,2.8-1.92,3.73-3.18,1.4-5.69,1.4c-1.26,0-2.59-.16-4-.47h.01Z"/>
            <path class="st10" d="M193.49-67.72c-1.9-1.67-2.85-4.03-2.85-7.07s.85-5.32,2.55-7.05,4.12-2.6,7.26-2.6c2.09,0,3.86.4,5.32,1.19,1.46.79,2.56,1.89,3.3,3.28s1.11,2.99,1.11,4.77v1.89h-15.91c.12,1.71.85,2.99,2.17,3.83,1.32.84,3.11,1.26,5.37,1.26,1.16,0,2.32-.11,3.51-.32,1.18-.21,2.22-.5,3.13-.85v3.05c-.81.33-1.87.6-3.19.81-1.32.21-2.62.32-3.9.32-3.34,0-5.96-.84-7.86-2.51h0ZM206.59-76c-.05-1.71-.61-3.04-1.68-3.98-1.07-.94-2.58-1.41-4.54-1.41s-3.39.49-4.45,1.47-1.61,2.29-1.66,3.92h12.33,0Z"/>
            <path class="st10" d="M220.28-66.91c-2.11-1.13-3.76-2.73-4.94-4.81-1.18-2.07-1.77-4.48-1.77-7.22s.59-5.15,1.77-7.24c1.18-2.09,2.83-3.69,4.94-4.83,2.11-1.13,4.53-1.7,7.24-1.7,3.62,0,6.65.92,9.09,2.75v3.7c-2.19-1.94-5.1-2.9-8.75-2.9-2.04,0-3.84.41-5.41,1.24-1.57.83-2.8,2.02-3.68,3.56-.88,1.55-1.32,3.35-1.32,5.41s.45,3.87,1.34,5.43,2.12,2.75,3.7,3.58c1.57.83,3.36,1.24,5.37,1.24,1.86,0,3.53-.25,5-.74s2.83-1.27,4.09-2.36v3.73c-2.26,1.88-5.41,2.83-9.43,2.83-2.72,0-5.13-.57-7.24-1.7v.03Z"/>
            <path class="st10" d="M241.09-92.14h3.85l9.39,20.55,9.39-20.55h3.85v26.36h-3.73v-18.74l-8.56,18.74h-1.89l-8.6-18.74v18.74h-3.69v-26.36h0Z"/>
            <path class="st10" d="M275.03-67.98c-1.84-1.85-2.75-4.39-2.75-7.64v-16.52h3.85v16.67c0,2.24.63,3.93,1.89,5.07s2.98,1.72,5.17,1.72,3.87-.57,5.13-1.72c1.26-1.14,1.89-2.83,1.89-5.07v-16.67h3.85v16.52c0,3.22-.92,5.76-2.75,7.62-1.83,1.86-4.54,2.79-8.11,2.79s-6.31-.92-8.14-2.77h-.03Z"/>
          </g>
          <path class="st10" d="M169.65-82.78c.57.39.86.86.86,1.41,0,.42-.13.78-.4,1.07-.27.29-.62.43-1.07.43-.28,0-.52-.06-.71-.18-.2-.12-.42-.3-.67-.54-.28-.24-.52-.42-.73-.54-.21-.12-.47-.18-.77-.18-.36,0-.73.15-1.11.45s-.99.97-1.82,2v9.75c0,.88.1,1.53.31,1.97.21.44.59.74,1.15.91s1.41.25,2.56.25c.08,0,.12.09.12.27s-.04.27-.12.27c-.92,0-1.66,0-2.22-.05l-3.14-.05-2.26.05c-.39.03-.92.05-1.59.05-.08,0-.13-.09-.13-.27s.04-.27.13-.27c.73,0,1.26-.08,1.61-.25s.59-.47.71-.91c.12-.44.19-1.1.19-1.97v-8.89c0-1-.11-1.72-.33-2.18-.22-.45-.59-.68-1.09-.68-.42,0-1.16.23-2.22.68h-.04c-.11,0-.2-.07-.25-.2-.06-.14-.03-.23.08-.29l5.03-2.63.25-.05c.28,0,.55.34.82,1.02.26.68.41,1.57.44,2.65,1.14-1.42,2.05-2.39,2.72-2.9.67-.51,1.31-.77,1.93-.77s1.21.2,1.78.59l-.02-.02Z"/>
          <path class="st1" d="M173.87-85.8c-2.62.25-4.88,2.18-5.85,4.98,2.62-.25,4.88-2.18,5.85-4.98Z"/>
          <path class="st2" d="M170.35-86.41c-2.37.69-4.11,3.05-4.51,6.11,2.37-.69,4.11-3.05,4.51-6.11Z"/>
          <path class="st4" d="M163.12-76.72c.21-1.6,1.46-2.94,2.96-3.44,1.49-.5,3.16-.25,4.58.45,1.64.82,2.9,2.2,4.15,3.53-.02-.04-.04-.08-.05-.12-.36-.52-.7-1.05-1.11-1.53-4.84-5.68-9.25-2.84-10.09-1.73-.45.6-.78,1.34-.7,2.09.03.23.09.46.18.68l.09.06h0Z"/>
          <path class="st4" d="M170.79-80c-1.13-.89-2.48-1.29-3.85-1.14.42-.71,1.02-1.18,1.62-1.56.6-.38,1.22-.71,1.76-1.25s1-1.34,1.05-2.21c.17.69.58,3.31-.83,4.11,1.11.37,3.32,2.12,3.07,6.99-.34-2.09-1.51-3.9-2.82-4.94h0Z"/>
          <path class="st0" d="M174.77-82.02c-2.33-1.25-5.25-.9-7.55.9,2.33,1.25,5.25.9,7.55-.9Z"/>
          <path class="st3" d="M162.95-68.51v.04h0c.23,1.8.62,2.46,1.41,2.69.96.28,1.6-.79,1.6-.79-2.77,1.41-1.58-8.68-2.26-14.13v-.04h0c-.23-1.8-.62-2.46-1.41-2.69-.96-.28-1.6.79-1.6.79,2.77-1.41,1.58,8.68,2.26,14.13Z"/>
        </g>
      </g>
      <g>
        <g>
          <path class="st5" d="M90.96-86.87v5.35c0,3.76-1.13,7.36-3.14,10.39-1.58,2.37-3.7,4.39-6.25,5.87l-12.45,7.19v-37.58c0-3.14-.79-6.18-2.22-8.85-1.64-3.08-4.14-5.69-7.28-7.47l9.5,5.4.69.39,14.82,8.42s.02.01.03.02c3.89,2.23,6.3,6.37,6.3,10.86h0Z"/>
          <path class="st10" d="M90.96-81.52v28.4c0,4.5-2.42,8.65-6.33,10.88h0l-14.82,8.42-.69-.4-20.66-11.93,20.66-11.93,12.45-7.19c2.55-1.47,4.67-3.5,6.25-5.87,2.01-3.03,3.14-6.63,3.14-10.39h0Z"/>
          <path class="st10" d="M37.3-28.03l-9.5-5.4-.69-.39-14.81-8.42c-3.92-2.23-6.34-6.38-6.34-10.89v-5.35c0-3.76,1.13-7.36,3.14-10.39,1.58-2.37,3.7-4.39,6.25-5.87l12.45-7.19v37.58c0,3.14.79,6.18,2.22,8.85,1.64,3.08,4.14,5.69,7.28,7.47Z"/>
          <path class="st5" d="M48.46-93.85l-20.66,11.93-12.45,7.19c-2.55,1.47-4.67,3.5-6.25,5.87-2.01,3.03-3.14,6.63-3.14,10.39v-28.4c0-4.47,2.38-8.59,6.24-10.83.01,0,.03-.02.04-.02.02,0,.03-.02.05-.03l5.46-3.1c3.11-1.77,6.59-2.58,10.04-2.44,2.99.12,5.95.95,8.63,2.49l12.03,6.95h0Z"/>
          <path class="st10" d="M69.12-95.65v13.72l-20.65-11.93h0l-12.03-6.95c-2.68-1.54-5.64-2.38-8.63-2.49-3.45-.14-6.94.67-10.04,2.44l9.35-5.32.69-.39,14.47-8.23c3.83-2.18,8.53-2.18,12.36,0h0l4.97,2.83c3.14,1.78,5.64,4.4,7.28,7.47,1.43,2.68,2.22,5.71,2.22,8.85Z"/>
          <path class="st5" d="M69.12-34.22l-20.66-11.93-20.66-11.93v13.72c0,3.14.79,6.18,2.22,8.85,1.64,3.08,4.14,5.69,7.28,7.47l4.97,2.83h0c3.81,2.16,8.47,2.17,12.29.04.03-.01.05-.03.08-.04l14.47-8.23.69-.39-.69-.4h0Z"/>
        </g>
        <g>
          <path class="st10" d="M47.22-84.4c-.05.12-.12.22-.16.22-.03,0-.08.07-.1.15-.07.2.53,1.78.64,1.73.04-.02.21-.07.36-.12.27-.09.28-.11.24-.31-.02-.13-.06-.52-.08-.86l-.05-.63-.34-.18c-.18-.1-.36-.19-.38-.2-.03,0-.09.08-.14.21h0ZM47.84-83.85c.1.52.11,1.1,0,1.16-.16.1-.18.08-.42-.55-.22-.6-.22-.63-.11-.81.12-.18.13-.18.3-.06.1.06.19.19.21.27h.01Z"/>
          <path class="st10" d="M49.83-84.38c-.2.1-.38.19-.39.19-.04.02-.24,1.29-.24,1.51,0,.15.06.21.31.34l.32.16.4-.84c.37-.78.4-.85.29-.97-.07-.07-.16-.23-.21-.35l-.09-.22-.37.18h-.02ZM50.16-83.97c.09.16.07.24-.11.65-.27.62-.38.77-.49.65-.07-.07-.07-.23,0-.71.08-.51.11-.63.25-.7.23-.11.24-.11.35.1h0Z"/>
          <path class="st10" d="M44.59-83.62c-.26,0-.46.05-.46.08,0,.02.04.18.1.35.06.16.12.38.15.5.04.18.19.28,1.22.8.65.33,1.19.59,1.2.57,0,0,.1-.17.22-.34.24-.37.35-.21-.93-1.29-.48-.39-.91-.71-.95-.7-.04,0-.29.02-.54.03h-.01ZM45.99-82.62c.42.34.76.63.76.65s-.02.08-.06.13c-.04.08-.27,0-1.01-.38-.87-.45-.95-.51-1.03-.75-.08-.25-.07-.26.16-.29.34-.04.35-.03,1.18.63h0Z"/>
          <path class="st10" d="M51.69-83.28c-.22.18-.48.39-.58.47-.19.17-.98.8-1.02.82s.39.69.44.69c.04,0,2.26-1.07,2.32-1.13,0,0,.07-.19.13-.41s.13-.47.16-.56c.05-.15.02-.16-.51-.19l-.55-.03-.39.31v.03ZM52.69-83.06c-.03.07-.07.2-.09.29-.02.11-.3.28-.97.61-.86.41-1.11.48-1.11.29,0-.04.36-.35.79-.69.72-.56.82-.62,1.11-.62s.32.02.27.13h0Z"/>
          <path class="st10" d="M48.55-82.79c-.05.19-.12.46-.14.58-.02.12-.16.33-.29.45s-.26.34-.29.47c-.04.19-.07.22-.12.13-.04-.06-.07-.21-.07-.35,0-.42-.12-.32-.21.18-.05.27-.13.65-.17.83-.11.46-.03.71.31,1.03.21.2.28.33.28.49v.24h1.54v-.2c0-.26.19-.43.48-.47l.22-.02-.17-.17c-.15-.16-.16-.2-.09-.55.14-.71.16-1,.09-1.04-.04-.02-.09.04-.12.14-.04.15-.24.32-.29.25-.16-.24-.24-.59-.2-.87l.05-.33-.24.31c-.13.18-.25.31-.27.31-.03,0-.02-.11,0-.25.03-.15,0-.32-.06-.46-.06-.13-.09-.31-.07-.43s.02-.32,0-.43c-.06-.2-.07-.19-.16.15h0ZM48.64-81.6c-.03.22-.02.42.03.52.04.08.09.23.09.33.02.26.13.16.13-.12,0-.43.11-.43.29-.03.17.35.17.38.05.58-.16.29-.06.27.18-.02l.2-.24v.29c0,.33-.16.62-.35.62-.11,0-.11,0-.02.07.09.05.09.1.03.2-.07.1-.2.13-.66.14h-.58l-.27-.32c-.29-.35-.33-.61-.21-1.17.05-.21.05-.22.14-.06.05.09.09.21.09.26,0,.06.05.17.12.25.07.09.1.08.07-.03-.03-.1,0-.24.07-.35.07-.11.1-.26.08-.4-.04-.18,0-.28.24-.55.16-.18.3-.33.31-.34,0,0,0,.16-.02.36h-.01ZM49.17-78.98c0,.09-.12.11-.59.11s-.59-.03-.59-.11c0-.09.12-.11.59-.11s.59.03.59.11Z"/>
          <path class="st10" d="M48.38-80.51c0,.44.2,1.16.26.89.02-.07,0-.23-.07-.37-.06-.13-.09-.35-.07-.48.02-.12,0-.29-.03-.35-.05-.1-.07-.02-.08.31h0Z"/>
          <path class="st10" d="M48.2-80.44c-.08.08-.05.49.06.76l.1.26-.04-.29c-.03-.16-.05-.4-.06-.54,0-.13,0-.24,0-.24,0,0-.03.02-.05.05Z"/>
          <path class="st10" d="M48.67-80.08c0,.08.04.24.1.37.12.29.13.08,0-.26-.07-.17-.1-.21-.1-.11Z"/>
          <path class="st10" d="M42.18-81.34c-.24.15-.59.32-.79.37-.41.1-.45.15-.2.26.09.04.42.28.72.53l.56.46,1.91-.14c1.05-.07,1.97-.13,2.05-.13.13,0,.14-.07.15-.51,0-.47,0-.51-.14-.52-.08,0-.58-.07-1.11-.16-.53-.08-1.28-.21-1.66-.27s-.78-.12-.88-.15c-.12-.02-.32.06-.61.25h0ZM44.44-80.96c.93.12,1.73.23,1.79.23.04,0,.09.08.09.18,0,.21-.07.22-2.17.33l-1.48.08-.34-.27c-.19-.15-.36-.29-.37-.31,0-.05.62-.46.72-.47.04,0,.84.1,1.76.22h0Z"/>
          <path class="st10" d="M54.26-81.51c-.06,0-.44.06-.85.13-.4.06-1.2.18-1.77.26l-1.04.16v.46c0,.55-.18.49,1.95.67.83.06,1.65.14,1.84.16.32.04.35.02.92-.44.33-.26.65-.5.72-.52.23-.06.15-.15-.25-.29-.21-.07-.56-.24-.77-.38-.36-.24-.48-.27-.76-.21h0ZM54.93-80.91c.2.1.35.22.34.25s-.18.17-.38.32l-.35.27-1.68-.13c-.92-.07-1.73-.13-1.79-.13-.07,0-.12-.07-.12-.18,0-.21-.12-.18,1.92-.44,1.61-.21,1.65-.21,2.07.03h0Z"/>
          <path class="st10" d="M45.72-79.42c-.51.18-1.93.69-3.17,1.12-1.24.43-2.71.95-3.28,1.16-.61.22-1.08.43-1.17.52-.07.08-.27.38-.44.67-.17.28-.47.72-.67.97l-.37.46h.25c.33,0,.98.12,1.76.32l.64.16,1.28-.79c.7-.43,1.4-.86,1.54-.95.31-.2,1.79-1.12,3.47-2.15,1.67-1.03,1.57-.95,1.49-1.05-.04-.04-.15-.24-.24-.42l-.17-.34-.92.32h0ZM46.58-79.1c0,.09-.67.54-2.47,1.64-1.37.83-2.84,1.73-3.27,1.98-.43.26-.96.58-1.19.72l-.41.25-.65-.16c-.36-.09-.74-.18-.86-.21l-.2-.05.29-.43c.16-.23.35-.55.42-.7l.13-.28,3.99-1.45c2.2-.8,4.05-1.44,4.11-1.43.06,0,.12.07.13.13h-.02Z"/>
          <path class="st10" d="M50.46-79.54c-.02.11-.12.29-.2.41-.16.21-.16.22-.02.32.07.06,1.83,1.18,3.91,2.49,3.67,2.33,3.77,2.39,3.99,2.31.4-.14,1.66-.37,2.04-.37h.36l-.36-.46c-.2-.26-.5-.69-.67-.98-.17-.28-.34-.58-.39-.66-.07-.1-.65-.36-1.99-.85-1.04-.38-2.66-.97-3.59-1.32-1.55-.58-2.97-1.09-3.02-1.09,0,0-.04.09-.07.2h0ZM52.59-78.57c.93.35,2.43.91,3.34,1.26.91.34,1.92.72,2.24.85.48.18.61.26.73.47.07.14.28.47.45.75.31.47.31.5.16.5-.1,0-.49.08-.88.17l-.72.16-.89-.56c-1.85-1.15-4.37-2.73-5.33-3.33-.54-.34-1.01-.63-1.04-.64-.04,0-.04-.1,0-.19.03-.12.07-.15.16-.12.07.03.88.34,1.81.69h-.02Z"/>
          <path class="st10" d="M47.84-78.32v.33h1.47v-.21c0-.12.02-.26.05-.33.04-.1-.05-.12-.73-.12h-.78v.33h-.01ZM49.17-78.35c0,.13-.05.15-.59.14-.44,0-.59-.03-.59-.1,0-.17.08-.2.64-.19.49,0,.54.02.54.15Z"/>
          <path class="st10" d="M47.91-77.81c0,.06-.14.17-.31.24-.18.07-.43.25-.55.41-.23.25-.24.3-.25.82,0,.3-.03.54-.05.52-.04-.02-.6-.1-1.24-.17-.98-.12-1.29-.13-1.76-.06-2,.28-2.94,2.13-2.15,4.19.2.49.6,1.14.98,1.59l.22.25-.25.04c-.14.03-.51,0-.82-.04-.66-.11-.78-.08-.78.18,0,.13-.04.18-.14.18-.07,0-.18.05-.23.11-.21.26.18.66.92.94.39.15.57.17,1.82.18.93,0,1.38.03,1.38.09,0,.04-.08.15-.19.25-.1.09-.19.23-.19.31,0,.15.08.17.2.05.07-.07.14-.07.31,0,.15.06.36.08.63.04q.4-.04.48.16c.04.11.11.49.13.83.03.35.1.74.14.87.07.18.06.36,0,.7-.16.9-.18,1.36-.06,2.12.1.69.1.85-.02,1.82-.11.89-.12,1.22-.05,2.03.11,1.36.09,1.64-.09,2.02-.09.18-.18.46-.2.63-.04.27,0,.35.19.58.39.44,1.49.66,2.01.4.11-.06.35-.11.52-.11.53,0,1.17-.26,1.53-.62.22-.22.38-.33.52-.33.1,0,.38-.12.6-.26.33-.21.44-.34.57-.64.21-.5.2-.62-.06-.77-.12-.07-.22-.18-.22-.24s-.05-.25-.11-.43c-.1-.29-.1-.39,0-.99.19-1.07.24-1.23.55-1.87l.29-.62.19.6c.27.86.33,2.8.13,4.08-.11.72-.12.87-.04.98.18.21.56.32,1.07.32.85,0,1.37-.36,1.57-1.08.07-.26.06-.41-.07-.97-.14-.61-.15-.72-.07-1.63.07-.83.13-1.1.38-1.79.16-.45.37-.95.44-1.12l.15-.31.11.46c.19.73.25,1.02.34,1.47.06.35.13.46.4.72.35.33.56.37.98.23.28-.1.29-.15,0-.35-.12-.09-.32-.35-.45-.58-.18-.31-.31-.44-.5-.5-.22-.07-.26-.13-.34-.45-.11-.46-.11-1.88,0-2.27.05-.16.09-.74.09-1.29,0-.83-.02-1.06-.15-1.43-.36-1-.94-1.76-1.78-2.33-.19-.13-.54-.42-.78-.64-.29-.27-.64-.5-1.03-.68l-.6-.28-.37-.73c-.46-.92-.71-1.12-1.4-1.12-.37,0-.54-.04-.93-.23-.43-.22-.55-.25-1.32-.28-1.52-.06-1.77-.05-2.12.13-.27.15-.65.44-1.33,1.04-.15.12-.23.14-.58.09-.34-.04-.46-.1-.65-.28-.21-.21-.26-.35-.36-.96-.06-.33.31-.65.92-.8.44-.11.55-.11,1.77.04.71.09,1.43.18,1.57.19.15.02.33.08.39.15.15.16.31.15.35,0,.03-.1.04-.09.04.04,0,.35.52.35.52,0,0-.13.06-.18.3-.26.5-.14.86-.53,1.04-1.12.28-.89.11-1.57-.48-2.05-.18-.14-.32-.32-.32-.38,0-.12-.08-.13-.7-.14-.56,0-.7.02-.7.11h.04ZM48.35-77.7s-.04.1-.1.15c-.09.07-.13.06-.19-.06-.07-.14-.06-.15.11-.15.1,0,.18.03.18.07h0ZM48.8-77.68s-.04.15-.07.21c-.07.1-.09.09-.18-.03-.15-.21-.14-.27.08-.26.1,0,.18.05.18.09h-.01ZM49.16-77.71s-.03.1-.07.16c-.05.08-.08.07-.15-.06s-.07-.15.07-.15c.08,0,.15.02.15.05ZM48.47-77.36c.06.14.21.14.32,0,.08-.1.1-.09.18.02.11.16,0,1.44-.12,1.6-.1.12-.42.14-.57.04-.15-.09-.21-1.51-.08-1.66.12-.14.21-.14.26,0h.01ZM49.56-77.05c.04.08.11.13.15.12.13-.04.2.21.09.29-.07.04-.06.06.04.06.07,0,.12.06.12.15,0,.08-.03.15-.07.15s-.07.03-.07.07.04.07.09.05c.05,0,.1.06.12.15.02.13,0,.17-.14.17q-.16,0-.03.1c.18.13.09.34-.13.34-.15,0-.16,0-.04.1.1.08.12.14.05.29-.08.21-.15.23-.29.09-.08-.07-.09-.06-.04.09.06.23-.1.34-.27.17-.12-.11-.13-.11-.13.03,0,.13-.13.24-.28.24-.03,0-.1-.07-.15-.16-.09-.13-.07-.18.22-.48.27-.29.3-.34.19-.44-.09-.1-.09-.14,0-.31.1-.18.16-.68.18-1.36,0-.28.02-.28.18-.18.09.06.2.18.23.26h-.02ZM48.01-76.58c.05.85.13.99.54,1.06.37.07.4.11.25.22-.07.05-.1.1-.07.1s-.03.12-.13.26c-.16.2-.19.29-.13.4.07.13.04.23-.08.23-.04,0-.05-.07-.02-.17.03-.1,0-.09-.07.02l-.12.18.05-.26c.03-.16.13-.33.28-.46.13-.11.19-.2.15-.2-.05,0-.18.07-.28.16-.16.13-.2.26-.25.65-.05.46-.06.47-.14.27-.05-.12-.09-.29-.09-.38,0-.1-.13-.34-.28-.54-.16-.2-.27-.39-.25-.41.03-.02,0-.04-.07-.04-.15,0-.24-.3-.12-.38.08-.06.07-.07-.02-.03-.07.02-.13,0-.13-.02,0-.04-.02-.12-.04-.18-.04-.09,0-.12.13-.12.15,0,.16,0,.05-.08-.07-.04-.13-.16-.13-.25,0-.14.03-.17.13-.13.1.04.11.03.03-.07-.07-.1-.07-.14.03-.24.11-.12.13-.12.23,0,.09.13.1.12.07-.07-.04-.15,0-.21.08-.23.36-.09.37-.09.41.7h0ZM46.02-75.71c.4.05.76.11.81.13.04.03.25.24.46.47.42.45.6.92.33.86-.08-.02-.15-.1-.16-.21,0-.1-.06-.22-.1-.26-.05-.05-.07,0-.03.12.04.19.03.21-.18.2-.19,0-.23-.04-.26-.22-.05-.24-.18-.23-.18,0s-.32.16-.35-.07c-.03-.2-.16-.21-.16-.02,0,.29-.41.16-.46-.15-.02-.12-.03-.12-.04,0,0,.16-.05.21-.19.2-.19,0-.3-.1-.36-.33-.03-.11-.04-.1-.04.05,0,.18-.04.21-.23.2-.2,0-.22-.02-.22-.22,0-.13-.03-.22-.06-.22s-.06.09-.05.2c0,.15-.05.21-.21.25-.26.07-.34.03-.34-.16,0-.07-.04-.16-.08-.19-.06-.03-.07.02-.03.18.04.19,0,.24-.15.35-.21.13-.29.09-.35-.16-.02-.08-.04-.02-.03.14.02.38-.19.53-.39.28-.07-.09-.16-.16-.19-.16s0,.07.07.14c.08.09.12.23.1.39-.02.25-.05.26-.43.17-.14-.03-.12,0,.08.1.32.18.4.28.47.55.05.19.04.2-.27.2-.25,0-.29,0-.18.07.08.04.23.08.33.11.1.02.29.13.4.22l.22.19-.27.11c-.15.07-.29.15-.32.18-.02.04.07.03.21-.03.15-.06.43-.11.63-.11.43,0,.54.14.32.39-.09.1-.05.09.09-.04.12-.11.26-.2.3-.2s.18-.12.33-.26c.13-.14.27-.24.28-.22.02.02.18-.09.35-.25.49-.45,1.23-.79,1.44-.65.08.06.06.11-.13.27-.13.11-.33.33-.44.49-.2.27-.19.26.24-.12.87-.78,1.84-.92,2.83-.42l.48.25-.29.29c-.16.15-.36.31-.45.35-.15.06-.14.07.07.07.15,0,.3-.06.5-.25.34-.31.64-.39,1.04-.31.45.1.8.53,1.01,1.27.19.61.33.82.59.87.08.02.15.08.17.16.02.1-.03.12-.23.12-.15,0-.31.02-.38.04-.1.04-.21-.05-.43-.37-.09-.12-.1-.07-.07.32l.03.46-.38.36c-.21.2-.39.32-.42.28-.02-.04-.07-.04-.12-.02-.05.04-.02.07.08.11.12.05.15.1.11.27-.06.24-.25.41-.41.37-.1-.03-.13.04-.16.31-.14,1.1-.12,1.04-.38,1.03-.3,0-.4-.12-.47-.57-.03-.19-.14-.49-.25-.65-.15-.21-.19-.35-.15-.48.03-.1.07-.29.09-.43.04-.22.03-.24-.13-.17-.16.05-.18.09-.15.42.02.39.09.57.31.81.19.21.15.58-.06.58-.1,0-.15-.05-.15-.18,0-.32-.02-.32-.17-.17-.1.1-.29.17-.54.2-.24.03-.46.11-.55.2-.26.23-.2.31.07.09.35-.29.79-.23,1.3.18.21.17.46.31.56.31.18,0,.22.04.5.44l.18.26.02-.26v-.59c-.03-.47.12-.94.36-1.2.11-.12.27-.37.33-.57.08-.21.23-.42.38-.53.13-.1.28-.28.32-.4.07-.18.12-.21.44-.24.19-.02.47-.08.61-.13l.27-.09-.19-.19c-.15-.16-.16-.19-.06-.21.2-.04.54.18,1.07.68.27.26.64.56.82.67.86.54,1.14.88,1.55,1.94.2.5.23.69.26,1.47.02.84.02.91-.2,1.51-.12.34-.36.91-.52,1.28-.16.36-.46,1.13-.65,1.7-.19.58-.38,1.06-.42,1.09-.04.02-.07.1-.07.16,0,.1,0,.1.1-.02.08-.12.1,0,.13.87.02.57.06,1.04.11,1.1.05.07.06.14,0,.21-.04.06-.07.18-.07.26,0,.13,0,.13.04.02.02-.07.07-.13.1-.13.1,0,.08.47-.04.63-.1.13-.11.13-.22,0-.14-.14-.59-.17-.67-.05-.04.04-.28.06-.67.05-.58-.03-.62-.03-.62-.2,0-.13.05-.16.24-.16h.24l-.21-.12c-.12-.07-.2-.16-.18-.24.03-.15.26-.17.48-.03.29.18.28.1-.03-.13-.37-.27-.41-.43-.34-1.3.06-.78.12-.84.42-.42.11.16.2.25.2.22,0-.11-.31-.68-.41-.74-.05-.03-.08-.12-.06-.21.02-.08-.04-.27-.11-.41-.08-.14-.14-.27-.14-.29s0-.17-.04-.33c-.09-.5.07-.78.89-1.61s1.02-1.15,1.32-2.1c.14-.46.16-.59.08-.6-.07,0-.1.09-.1.23,0,.26-.2.89-.44,1.33-.14.27-.62.72-1.06,1.01-.38.23-1.83.3-1.82.07,0-.08.18-.08.38,0,.07.03.03-.04-.1-.18-.18-.19-.21-.26-.15-.32.07-.07.1-.06.15.02.06.09.07.07.07-.1,0-.11.04-.2.08-.2s.07.05.04.1c-.03.07,0,.1.07.07.06-.02.13-.12.15-.21.02-.1.07-.18.1-.18.02,0,.05-.12.07-.27.02-.26,0-.26-.09-.13-.07.1-.1.1-.11,0,0-.1-.05-.1-.14,0-.08.1-.16.17-.18.17s-.04-.16-.04-.36c0-.21-.02-.38-.06-.4-.03,0-.05.21-.03.51.03.5,0,.57-.2.89-.13.2-.31.54-.42.77-.19.43-.42.77-.82,1.23-.21.24-.62,1.21-.87,2.09-.07.25-.16.4-.28.45-.17.08-.17.09.08.11.24.02.25.04.31.41.05.31.04.42-.06.57-.18.28-.14.31.08.07l.2-.21.06.24c.06.18.04.27-.04.37-.22.25-.22.32,0,.17.25-.18.46-.14.46.1,0,.28-.1.35-.35.26-.3-.1-.53,0-.58.3-.05.19-.07.21-.3.17-.17-.03-.28-.02-.32.05-.03.05-.21.09-.39.1h-.34l.02-.25c.02-.15.06-.25.1-.23.05,0,.09-.03.09-.09,0-.13-.18-.28-.25-.21-.04.03-.04-.03-.03-.13.02-.12.07-.18.16-.18.1.02.11,0,.04-.09-.04-.06-.13-.1-.18-.1-.13,0-.13-.27,0-.32.04-.02,0-.04-.07-.04-.18,0-.23-.19-.09-.27.04-.04.04-.08-.04-.13-.12-.09-.15-.23-.13-.6.02-.25.13-.18.18.1.02.1.03.05.03-.11,0-.18-.05-.29-.11-.29-.26,0-.3-.49-.08-1.27.08-.29.15-.59.15-.67,0-.15.13-.28.19-.2.02,0,.06.24.09.5.04.35.05.22.02-.46-.04-1.06.03-1.44.42-2.29.16-.37.3-.81.36-1.23.07-.44.17-.79.33-1.08.16-.29.18-.36.06-.21-.44.56-.42.55-.42.24,0-.15.04-.35.08-.43.04-.07.06-.14.05-.14-.02,0-.09.1-.16.22-.07.15-.11.43-.12.9,0,.72-.1,1.12-.26,1.18-.17.06-.43-.22-.65-.69-.3-.63-.33-.49-.04.19.23.55.25.61.24,1.49,0,.74-.04,1.04-.19,1.54-.33,1.17-.39,1.6-.35,2.43.03.43.09.94.14,1.15.06.21.11.52.13.71,0,.18.06.39.11.46.07.08.08.21.05.44-.04.24-.02.4.06.55.21.41.1.54-.12.15-.1-.18-.18-.22-.33-.21-.12,0-.25,0-.3-.03-.04-.04-.22-.07-.38-.07-.18,0-.29-.04-.29-.1,0-.05-.08-.12-.18-.14-.13-.04-.18-.1-.18-.23,0-.1.04-.18.08-.18s.07-.05.04-.11c-.02-.07.02-.12.16-.15.13-.03.14-.07.04-.11-.17-.07-.2-.19-.1-.35.04-.07.11-.04.24.1.09.1.24.22.32.27.09.05.09.02,0-.07-.36-.32-.53-.71-.58-1.31l-.05-.59.18.17.18.18-.17-.35c-.14-.28-.17-.46-.17-.94,0-.83.08-1.37.19-1.37.05,0,.11.04.13.1.02.06.12.15.21.19.15.07.16.07.04-.03-.2-.16-.46-1.04-.51-1.77-.05-.74.03-1.96.13-1.96.08,0,.51.31.82.59.19.17.2.18.12.03-.04-.08-.21-.27-.37-.39-.17-.13-.36-.36-.43-.51-.16-.32-.3-.94-.29-1.35,0-.33-.13-.8-.23-.8-.03,0-.06-.07-.06-.15,0-.12.03-.14.13-.1.23.1.82.13,1.07.05.29-.09.46-.25.53-.52.05-.16.03-.15-.1.05-.19.3-.36.39-.75.39-.25,0-.29-.02-.23-.09.05-.05.09-.13.09-.19,0-.09-.02-.09-.16,0-.1.06-.4.13-.69.15-.28.02-.63.06-.75.09-.3.06-.32-.07-.06-.28.1-.08.24-.24.3-.36.15-.27.5-.45.82-.41.14.02.25,0,.25-.03s-.05-.06-.11-.06-.18-.07-.26-.15c-.11-.11-.15-.12-.15-.05,0,.14-.11.21-.45.26-.46.08-1.01-.05-1.42-.33-.21-.14-.53-.31-.72-.39-.23-.09-.35-.18-.35-.25s-.1-.22-.23-.35c-.26-.25-.8-1.06-1.11-1.68-.21-.41-.22-.49-.22-1.25s.02-.85.21-1.23c.31-.62.88-1.11,1.47-1.26.79-.19,1.08-.2,2.74-.02l.04.06ZM48.61-74c-.02.1-.05.17-.1.17-.04,0-.08-.07-.09-.17,0-.11.02-.16.1-.16s.11.05.09.16ZM42.16-69.81c.71.03,1.14.13,1.14.26,0,.03-.18.09-.41.14-.79.16-1.95-.14-1.76-.45.03-.04.1-.06.18-.04.07.03.45.07.85.09ZM41.39-69.38c.5.16,1.2.18,1.87.05l.52-.09.38.24c.21.13.38.27.38.3,0,.04-.16.09-.35.11-.2.02-.58.08-.86.12-.59.08-1.19.03-1.84-.17-.46-.15-.84-.44-.74-.59.06-.11.16-.1.63.04h0ZM45.43-68.7c0,.06-.12.23-.26.39l-.25.27v-.27c0-.15.05-.32.11-.38.15-.15.4-.15.4,0h0ZM51.75-62.77c.07.2.05.25-.13.25-.1,0-.2.03-.22.06-.03.04.02.05.1.03.25-.06.25.17-.03.84-.14.36-.31.8-.38.99-.07.19-.24.44-.38.56-.13.12-.23.23-.21.26.09.08.16.05.21-.12.05-.14.06-.15.13-.04.04.06.12.1.18.08.11-.04.12,1.56,0,1.63-.04.02-.11.12-.16.2l-.09.15.21-.15c.24-.19.43-.2.55-.05.18.21.06.37-.27.37-.18,0-.35.05-.44.12-.2.18-.31.16-.36-.05-.02-.1-.09-.2-.15-.22s-.1-.12-.1-.21c0-.1-.08-.24-.18-.33-.12-.1-.18-.24-.18-.37,0-.12-.03-.39-.08-.61-.07-.38-.06-.45.23-1.28.26-.76.35-.92.68-1.26.2-.22.42-.49.48-.61.18-.34.5-.48.58-.25h.01ZM57.2-61.34c.09.16.26.38.37.5.18.19.19.21.06.21-.26,0-.76-.3-.81-.48-.02-.1-.06-.24-.09-.32-.03-.09,0-.09.07,0,.16.2.22.16.07-.06-.12-.18-.12-.19.02-.17.08.02.21.16.3.33h.01ZM51.43-57.51c.04.07-.35.45-.45.43-.02,0-.1.04-.16.11-.07.06-.2.11-.29.11-.16,0-.18-.03-.16-.21s.05-.2.27-.19c.18.02.24,0,.24-.12,0-.21.45-.31.56-.14h-.01ZM54.6-57.15c.07.17-.25.41-.47.36-.09-.02-.18-.02-.19.02s-.23.09-.47.11c-.4.05-.47.03-.61-.11-.23-.24-.17-.41.14-.41.23,0,.26.02.29.22l.04.22.09-.2c.1-.21.41-.28.51-.11.04.05.07.03.11-.07.07-.2.49-.22.56-.03ZM50.08-57c.06.1.02.17-.18.34-.14.12-.27.2-.3.19-.1-.06-.06-.51.03-.6.12-.12.35-.08.45.07ZM49.43-56.54c.18.13.1.29-.22.4-.24.08-.29.08-.34,0s-.07-.07-.07.03c0,.19-.19.23-.41.09-.33-.22-.15-.67.19-.48.13.07.18.07.23-.03.08-.15.42-.15.61,0h.01ZM46.45-56.38c.17.34-.02.65-.25.39-.17-.2-.2-.29-.15-.41.06-.16.3-.15.4.02ZM47.17-55.96c.03.27-.11.35-.39.25-.12-.04-.18-.13-.18-.24,0-.24.07-.28.33-.26.19.02.22.06.24.25ZM47.85-56c.11.21.05.27-.27.31-.29.03-.35-.02-.29-.28.06-.23.44-.25.56-.03Z"/>
          <path class="st10" d="M50.1-72.37c-.13.13-.11.39.04.52.17.16.26.16.21.02-.2-.54.71-.33.95.2.05.13.18.44.28.66.12.27.23.43.3.43.1,0,.09-.04-.06-.21-.1-.13-.22-.4-.27-.61-.12-.53-.17-.62-.52-.87-.32-.24-.76-.3-.93-.14Z"/>
          <path class="st10" d="M49.89-71.62c-.22.15-.44.92-.35,1.19.04.13.06.3.03.4-.02.1,0,.26.04.36.07.17.07.15.08-.15.02-.46.11-.96.17-.96.15,0,.29-.09.25-.18-.02-.06.03-.14.12-.18.12-.07.18-.06.26.04.1.1.1.16-.02.53-.14.45-.12.72.07.79.18.07.22,0,.06-.13-.12-.1-.13-.13-.03-.46.06-.19.11-.47.11-.61,0-.21-.02-.26-.19-.32s-.24-.05-.38.09c-.1.09-.21.16-.26.16-.15,0-.09-.35.08-.47.09-.07.15-.13.13-.15-.02,0-.1,0-.18.07v-.02Z"/>
          <path class="st10" d="M46.67-71.6c-.22.06-.49.27-.49.38,0,.04.08,0,.18-.08.33-.25.6-.26.93-.04.16.1.33.19.37.17.09-.03-.42-.4-.64-.45-.08-.02-.24,0-.36.02h.01Z"/>
          <path class="st10" d="M49.19-70.98c-.15.25-.23,1.02-.08.79.04-.06.07-.22.08-.35,0-.13.05-.34.11-.46.16-.29.08-.28-.11,0h0Z"/>
          <path class="st10" d="M46.37-70.98c-.25.2-.1.34.37.34.36,0,.4,0,.32-.11-.05-.07-.08-.13-.06-.15.06-.07.28.05.23.12-.05.1.05.08.26-.04.12-.06.08-.11-.11-.15-.77-.12-.87-.12-1.02-.02h.01ZM46.69-70.86c0,.1-.05.15-.13.15-.19,0-.25-.08-.15-.2.13-.15.29-.12.29.05h0Z"/>
          <path class="st10" d="M48.75-69.86c-.07.08-.04.09.1.06.12-.02.24.02.33.1.08.07.15.1.15.06,0-.11-.25-.32-.38-.32-.07,0-.15.04-.2.1Z"/>
          <path class="st10" d="M49.18-69.07s.04.05.07.03c.04-.02.07-.06.07-.08,0,0-.03-.03-.07-.03s-.07.04-.07.08Z"/>
          <path class="st10" d="M50.11-68.76c.02.07.07.11.09.09s0-.08-.05-.13c-.07-.07-.08-.06-.04.04Z"/>
          <path class="st10" d="M47-67.29c.1.46.27.91.35.99.05.04,0-.18-.11-.52-.22-.64-.32-.83-.24-.46h0Z"/>
          <path class="st10" d="M54.88-66.85c.02.1.06.33.1.52l.06.35v-.33c0-.18-.03-.41-.1-.52-.1-.18-.11-.18-.06-.02Z"/>
          <path class="st10" d="M47.89-60.88c0,.08.02.1.04.04.02-.05.02-.12,0-.14-.02-.03-.04,0-.04.1Z"/>
          <path class="st10" d="M47.82-60.56c0,.1,0,.14.04.09,0-.04.02-.13,0-.18-.02-.04-.04,0-.04.1h0Z"/>
        </g>
      </g>
    </g>
  </g>
  <g>
    <g>
      <path class="st5" d="M91.73,33.14v5.35c0,3.76-1.13,7.36-3.14,10.39-1.58,2.37-3.7,4.39-6.25,5.87l-12.45,7.19V24.36c0-3.14-.79-6.18-2.22-8.85-1.64-3.08-4.14-5.69-7.28-7.47l9.5,5.4.69.39,14.82,8.42s.02.01.03.02c3.89,2.23,6.3,6.37,6.3,10.86h0Z"/>
      <path class="st10" d="M91.73,38.49v28.4c0,4.5-2.42,8.65-6.33,10.88h0l-14.82,8.42-.69-.4-20.66-11.93,20.66-11.93,12.45-7.19c2.55-1.47,4.67-3.5,6.25-5.87,2.01-3.03,3.14-6.63,3.14-10.39h0Z"/>
      <path class="st10" d="M38.07,91.98l-9.5-5.4-.69-.39-14.81-8.42c-3.92-2.23-6.34-6.38-6.34-10.89v-5.35c0-3.76,1.13-7.36,3.14-10.39,1.58-2.37,3.7-4.39,6.25-5.87l12.45-7.19v37.58c0,3.14.79,6.18,2.22,8.85,1.64,3.08,4.14,5.69,7.28,7.47Z"/>
      <path class="st5" d="M49.23,26.16l-20.66,11.93-12.45,7.19c-2.55,1.47-4.67,3.5-6.25,5.87-2.01,3.03-3.14,6.63-3.14,10.39v-28.4c0-4.47,2.38-8.59,6.24-10.83.01,0,.03-.02.04-.02.02,0,.03-.02.05-.03l5.46-3.1c3.11-1.77,6.59-2.58,10.04-2.44,2.99.12,5.95.95,8.63,2.49l12.03,6.95h0Z"/>
      <path class="st10" d="M69.89,24.36v13.72l-20.65-11.93h0l-12.03-6.95c-2.68-1.54-5.64-2.38-8.63-2.49-3.45-.14-6.94.67-10.04,2.44l9.35-5.32.69-.39,14.47-8.23c3.83-2.18,8.53-2.18,12.36,0h0l4.97,2.83c3.14,1.78,5.64,4.4,7.28,7.47,1.43,2.68,2.22,5.71,2.22,8.85Z"/>
      <path class="st5" d="M69.89,85.79l-20.66-11.93-20.66-11.93v13.72c0,3.14.79,6.18,2.22,8.85,1.64,3.08,4.14,5.69,7.28,7.47l4.97,2.83h0c3.81,2.16,8.47,2.17,12.29.04.03-.01.05-.03.08-.04l14.47-8.23.69-.39-.69-.4h0Z"/>
      <path class="st10" d="M47.99,35.61c-.05.12-.12.22-.16.22-.03,0-.08.07-.1.15-.07.2.53,1.78.64,1.73.04-.02.21-.07.36-.12.27-.09.28-.11.24-.31-.02-.13-.06-.52-.08-.86l-.05-.63-.34-.18c-.18-.1-.36-.19-.38-.2-.03,0-.09.08-.14.21h0ZM48.61,36.16c.1.52.11,1.1,0,1.16-.16.1-.18.08-.42-.55-.22-.6-.22-.63-.11-.81.12-.18.13-.18.3-.06.1.06.19.19.21.27h.01Z"/>
      <path class="st10" d="M50.6,35.63c-.2.1-.38.19-.39.19-.04.02-.24,1.29-.24,1.51,0,.15.06.21.31.34l.32.16.4-.84c.37-.78.4-.85.29-.97-.07-.07-.16-.23-.21-.35l-.09-.22-.37.18h-.02ZM50.93,36.04c.09.16.07.24-.11.65-.27.62-.38.77-.49.65-.07-.07-.07-.23,0-.71.08-.51.11-.63.25-.7.23-.11.24-.11.35.1h0Z"/>
      <path class="st10" d="M45.36,36.39c-.26,0-.46.05-.46.08,0,.02.04.18.1.35.06.16.12.38.15.5.04.18.19.28,1.22.8.65.33,1.19.59,1.2.57,0,0,.1-.17.22-.34.24-.37.35-.21-.93-1.29-.48-.39-.91-.71-.95-.7-.04,0-.29.02-.54.03h-.01ZM46.76,37.39c.42.34.76.63.76.65s-.02.08-.06.13c-.04.08-.27,0-1.01-.38-.87-.45-.95-.51-1.03-.75-.08-.25-.07-.26.16-.29.34-.04.35-.03,1.18.63h0Z"/>
      <path class="st10" d="M52.46,36.73c-.22.18-.48.39-.58.47-.19.17-.98.8-1.02.82s.39.69.44.69c.04,0,2.26-1.07,2.32-1.13,0,0,.07-.19.13-.41s.13-.47.16-.56c.05-.15.02-.16-.51-.19l-.55-.03-.39.31v.03ZM53.46,36.95c-.03.07-.07.2-.09.29-.02.11-.3.28-.97.61-.86.41-1.11.48-1.11.29,0-.04.36-.35.79-.69.72-.56.82-.62,1.11-.62s.32.02.27.13h0Z"/>
      <path class="st10" d="M49.32,37.22c-.05.19-.12.46-.14.58-.02.12-.16.33-.29.45s-.26.34-.29.47c-.04.19-.07.22-.12.13-.04-.06-.07-.21-.07-.35,0-.42-.12-.32-.21.18-.05.27-.13.65-.17.83-.11.46-.03.71.31,1.03.21.2.28.33.28.49v.24h1.54v-.2c0-.26.19-.43.48-.47l.22-.02-.17-.17c-.15-.16-.16-.2-.09-.55.14-.71.16-1,.09-1.04-.04-.02-.09.04-.12.14-.04.15-.24.32-.29.25-.16-.24-.24-.59-.2-.87l.05-.33-.24.31c-.13.18-.25.31-.27.31-.03,0-.02-.11,0-.25.03-.15,0-.32-.06-.46-.06-.13-.09-.31-.07-.43s.02-.32,0-.43c-.06-.2-.07-.19-.16.15h0ZM49.41,38.41c-.03.22-.02.42.03.52.04.08.09.23.09.33.02.26.13.16.13-.12,0-.43.11-.43.29-.03.17.35.17.38.05.58-.16.29-.06.27.18-.02l.2-.24v.29c0,.33-.16.62-.35.62-.11,0-.11,0-.02.07.09.05.09.1.03.2-.07.1-.2.13-.66.14h-.58l-.27-.32c-.29-.35-.33-.61-.21-1.17.05-.21.05-.22.14-.06.05.09.09.21.09.26,0,.06.05.17.12.25.07.09.1.08.07-.03-.03-.1,0-.24.07-.35.07-.11.1-.26.08-.4-.04-.18,0-.28.24-.55.16-.18.3-.33.31-.34,0,0,0,.16-.02.36h-.01ZM49.94,41.03c0,.09-.12.11-.59.11s-.59-.03-.59-.11c0-.09.12-.11.59-.11s.59.03.59.11Z"/>
      <path class="st10" d="M49.15,39.5c0,.44.2,1.16.26.89.02-.07,0-.23-.07-.37-.06-.13-.09-.35-.07-.48.02-.12,0-.29-.03-.35-.05-.1-.07-.02-.08.31h0Z"/>
      <path class="st10" d="M48.97,39.57c-.08.08-.05.49.06.76l.1.26-.04-.29c-.03-.16-.05-.4-.06-.54,0-.13,0-.24,0-.24,0,0-.03.02-.05.05Z"/>
      <path class="st10" d="M49.44,39.93c0,.08.04.24.1.37.12.29.13.08,0-.26-.07-.17-.1-.21-.1-.11Z"/>
      <path class="st10" d="M42.95,38.67c-.24.15-.59.32-.79.37-.41.1-.45.15-.2.26.09.04.42.28.72.53l.56.46,1.91-.14c1.05-.07,1.97-.13,2.05-.13.13,0,.14-.07.15-.51,0-.47,0-.51-.14-.52-.08,0-.58-.07-1.11-.16-.53-.08-1.28-.21-1.66-.27s-.78-.12-.88-.15c-.12-.02-.32.06-.61.25h0ZM45.21,39.05c.93.12,1.73.23,1.79.23.04,0,.09.08.09.18,0,.21-.07.22-2.17.33l-1.48.08-.34-.27c-.19-.15-.36-.29-.37-.31,0-.05.62-.46.72-.47.04,0,.84.1,1.76.22h0Z"/>
      <path class="st10" d="M55.03,38.5c-.06,0-.44.06-.85.13-.4.06-1.2.18-1.77.26l-1.04.16v.46c0,.55-.18.49,1.95.67.83.06,1.65.14,1.84.16.32.04.35.02.92-.44.33-.26.65-.5.72-.52.23-.06.15-.15-.25-.29-.21-.07-.56-.24-.77-.38-.36-.24-.48-.27-.76-.21h0ZM55.7,39.1c.2.1.35.22.34.25s-.18.17-.38.32l-.35.27-1.68-.13c-.92-.07-1.73-.13-1.79-.13-.07,0-.12-.07-.12-.18,0-.21-.12-.18,1.92-.44,1.61-.21,1.65-.21,2.07.03h0Z"/>
      <path class="st10" d="M46.49,40.59c-.51.18-1.93.69-3.17,1.12-1.24.43-2.71.95-3.28,1.16-.61.22-1.08.43-1.17.52-.07.08-.27.38-.44.67-.17.28-.47.72-.67.97l-.37.46h.25c.33,0,.98.12,1.76.32l.64.16,1.28-.79c.7-.43,1.4-.86,1.54-.95.31-.2,1.79-1.12,3.47-2.15,1.67-1.03,1.57-.95,1.49-1.05-.04-.04-.15-.24-.24-.42l-.17-.34-.92.32h0ZM47.35,40.91c0,.09-.67.54-2.47,1.64-1.37.83-2.84,1.73-3.27,1.98-.43.26-.96.58-1.19.72l-.41.25-.65-.16c-.36-.09-.74-.18-.86-.21l-.2-.05.29-.43c.16-.23.35-.55.42-.7l.13-.28,3.99-1.45c2.2-.8,4.05-1.44,4.11-1.43.06,0,.12.07.13.13h-.02Z"/>
      <path class="st10" d="M51.23,40.47c-.02.11-.12.29-.2.41-.16.21-.16.22-.02.32.07.06,1.83,1.18,3.91,2.49,3.67,2.33,3.77,2.39,3.99,2.31.4-.14,1.66-.37,2.04-.37h.36l-.36-.46c-.2-.26-.5-.69-.67-.98-.17-.28-.34-.58-.39-.66-.07-.1-.65-.36-1.99-.85-1.04-.38-2.66-.97-3.59-1.32-1.55-.58-2.97-1.09-3.02-1.09,0,0-.04.09-.07.2h0ZM53.36,41.44c.93.35,2.43.91,3.34,1.26.91.34,1.92.72,2.24.85.48.18.61.26.73.47.07.14.28.47.45.75.31.47.31.5.16.5-.1,0-.49.08-.88.17l-.72.16-.89-.56c-1.85-1.15-4.37-2.73-5.33-3.33-.54-.34-1.01-.63-1.04-.64-.04,0-.04-.1,0-.19.03-.12.07-.15.16-.12.07.03.88.34,1.81.69h-.02Z"/>
      <path class="st10" d="M48.61,41.69v.33h1.47v-.21c0-.12.02-.26.05-.33.04-.1-.05-.12-.73-.12h-.78v.33h-.01ZM49.94,41.66c0,.13-.05.15-.59.14-.44,0-.59-.03-.59-.1,0-.17.08-.2.64-.19.49,0,.54.02.54.15Z"/>
      <path class="st10" d="M48.68,42.2c0,.06-.14.17-.31.24-.18.07-.43.25-.55.41-.23.25-.24.3-.25.82,0,.3-.03.54-.05.52-.04-.02-.6-.1-1.24-.17-.98-.12-1.29-.13-1.76-.06-2,.28-2.94,2.13-2.15,4.19.2.49.6,1.14.98,1.59l.22.25-.25.04c-.14.03-.51,0-.82-.04-.66-.11-.78-.08-.78.18,0,.13-.04.18-.14.18-.07,0-.18.05-.23.11-.21.26.18.66.92.94.39.15.57.17,1.82.18.93,0,1.38.03,1.38.09,0,.04-.08.15-.19.25-.1.09-.19.23-.19.31,0,.15.08.17.2.05.07-.07.14-.07.31,0,.15.06.36.08.63.04q.4-.04.48.16c.04.11.11.49.13.83.03.35.1.74.14.87.07.18.06.36,0,.7-.16.9-.18,1.36-.06,2.12.1.69.1.85-.02,1.82-.11.89-.12,1.22-.05,2.03.11,1.36.09,1.64-.09,2.02-.09.18-.18.46-.2.63-.04.27,0,.35.19.58.39.44,1.49.66,2.01.4.11-.06.35-.11.52-.11.53,0,1.17-.26,1.53-.62.22-.22.38-.33.52-.33.1,0,.38-.12.6-.26.33-.21.44-.34.57-.64.21-.5.2-.62-.06-.77-.12-.07-.22-.18-.22-.24s-.05-.25-.11-.43c-.1-.29-.1-.39,0-.99.19-1.07.24-1.23.55-1.87l.29-.62.19.6c.27.86.33,2.8.13,4.08-.11.72-.12.87-.04.98.18.21.56.32,1.07.32.85,0,1.37-.36,1.57-1.08.07-.26.06-.41-.07-.97-.14-.61-.15-.72-.07-1.63.07-.83.13-1.1.38-1.79.16-.45.37-.95.44-1.12l.15-.31.11.46c.19.73.25,1.02.34,1.47.06.35.13.46.4.72.35.33.56.37.98.23.28-.1.29-.15,0-.35-.12-.09-.32-.35-.45-.58-.18-.31-.31-.44-.5-.5-.22-.07-.26-.13-.34-.45-.11-.46-.11-1.88,0-2.27.05-.16.09-.74.09-1.29,0-.83-.02-1.06-.15-1.43-.36-1-.94-1.76-1.78-2.33-.19-.13-.54-.42-.78-.64-.29-.27-.64-.5-1.03-.68l-.6-.28-.37-.73c-.46-.92-.71-1.12-1.4-1.12-.37,0-.54-.04-.93-.23-.43-.22-.55-.25-1.32-.28-1.52-.06-1.77-.05-2.12.13-.27.15-.65.44-1.33,1.04-.15.12-.23.14-.58.09-.34-.04-.46-.1-.65-.28-.21-.21-.26-.35-.36-.96-.06-.33.31-.65.92-.8.44-.11.55-.11,1.77.04.71.09,1.43.18,1.57.19.15.02.33.08.39.15.15.16.31.15.35,0,.03-.1.04-.09.04.04,0,.35.52.35.52,0,0-.13.06-.18.3-.26.5-.14.86-.53,1.04-1.12.28-.89.11-1.57-.48-2.05-.18-.14-.32-.32-.32-.38,0-.12-.08-.13-.7-.14-.56,0-.7.02-.7.11h.04ZM49.12,42.31s-.04.1-.1.15c-.09.07-.13.06-.19-.06-.07-.14-.06-.15.11-.15.1,0,.18.03.18.07h0ZM49.57,42.33s-.04.15-.07.21c-.07.1-.09.09-.18-.03-.15-.21-.14-.27.08-.26.1,0,.18.05.18.09h-.01ZM49.93,42.3s-.03.1-.07.16c-.05.08-.08.07-.15-.06s-.07-.15.07-.15c.08,0,.15.02.15.05ZM49.24,42.65c.06.14.21.14.32,0,.08-.1.1-.09.18.02.11.16,0,1.44-.12,1.6-.1.12-.42.14-.57.04-.15-.09-.21-1.51-.08-1.66.12-.14.21-.14.26,0h.01ZM50.33,42.96c.04.08.11.13.15.12.13-.04.2.21.09.29-.07.04-.06.06.04.06.07,0,.12.06.12.15,0,.08-.03.15-.07.15s-.07.03-.07.07.04.07.09.05c.05,0,.1.06.12.15.02.13,0,.17-.14.17q-.16,0-.03.1c.18.13.09.34-.13.34-.15,0-.16,0-.04.1.1.08.12.14.05.29-.08.21-.15.23-.29.09-.08-.07-.09-.06-.04.09.06.23-.1.34-.27.17-.12-.11-.13-.11-.13.03,0,.13-.13.24-.28.24-.03,0-.1-.07-.15-.16-.09-.13-.07-.18.22-.48.27-.29.3-.34.19-.44-.09-.1-.09-.14,0-.31.1-.18.16-.68.18-1.36,0-.28.02-.28.18-.18.09.06.2.18.23.26h-.02ZM48.78,43.43c.05.85.13.99.54,1.06.37.07.4.11.25.22-.07.05-.1.1-.07.1s-.03.12-.13.26c-.16.2-.19.29-.13.4.07.13.04.23-.08.23-.04,0-.05-.07-.02-.17.03-.1,0-.09-.07.02l-.12.18.05-.26c.03-.16.13-.33.28-.46.13-.11.19-.2.15-.2-.05,0-.18.07-.28.16-.16.13-.2.26-.25.65-.05.46-.06.47-.14.27-.05-.12-.09-.29-.09-.38,0-.1-.13-.34-.28-.54-.16-.2-.27-.39-.25-.41.03-.02,0-.04-.07-.04-.15,0-.24-.3-.12-.38.08-.06.07-.07-.02-.03-.07.02-.13,0-.13-.02,0-.04-.02-.12-.04-.18-.04-.09,0-.12.13-.12.15,0,.16,0,.05-.08-.07-.04-.13-.16-.13-.25,0-.14.03-.17.13-.13.1.04.11.03.03-.07-.07-.1-.07-.14.03-.24.11-.12.13-.12.23,0,.09.13.1.12.07-.07-.04-.15,0-.21.08-.23.36-.09.37-.09.41.7h0ZM46.79,44.3c.4.05.76.11.81.13.04.03.25.24.46.47.42.45.6.92.33.86-.08-.02-.15-.1-.16-.21,0-.1-.06-.22-.1-.26-.05-.05-.07,0-.03.12.04.19.03.21-.18.2-.19,0-.23-.04-.26-.22-.05-.24-.18-.23-.18,0s-.32.16-.35-.07c-.03-.2-.16-.21-.16-.02,0,.29-.41.16-.46-.15-.02-.12-.03-.12-.04,0,0,.16-.05.21-.19.2-.19,0-.3-.1-.36-.33-.03-.11-.04-.1-.04.05,0,.18-.04.21-.23.2-.2,0-.22-.02-.22-.22,0-.13-.03-.22-.06-.22s-.06.09-.05.2c0,.15-.05.21-.21.25-.26.07-.34.03-.34-.16,0-.07-.04-.16-.08-.19-.06-.03-.07.02-.03.18.04.19,0,.24-.15.35-.21.13-.29.09-.35-.16-.02-.08-.04-.02-.03.14.02.38-.19.53-.39.28-.07-.09-.16-.16-.19-.16s0,.07.07.14c.08.09.12.23.1.39-.02.25-.05.26-.43.17-.14-.03-.12,0,.08.1.32.18.4.28.47.55.05.19.04.2-.27.2-.25,0-.29,0-.18.07.08.04.23.08.33.11.1.02.29.13.4.22l.22.19-.27.11c-.15.07-.29.15-.32.18-.02.04.07.03.21-.03.15-.06.43-.11.63-.11.43,0,.54.14.32.39-.09.1-.05.09.09-.04.12-.11.26-.2.3-.2s.18-.12.33-.26c.13-.14.27-.24.28-.22.02.02.18-.09.35-.25.49-.45,1.23-.79,1.44-.65.08.06.06.11-.13.27-.13.11-.33.33-.44.49-.2.27-.19.26.24-.12.87-.78,1.84-.92,2.83-.42l.48.25-.29.29c-.16.15-.36.31-.45.35-.15.06-.14.07.07.07.15,0,.3-.06.5-.25.34-.31.64-.39,1.04-.31.45.1.8.53,1.01,1.27.19.61.33.82.59.87.08.02.15.08.17.16.02.1-.03.12-.23.12-.15,0-.31.02-.38.04-.1.04-.21-.05-.43-.37-.09-.12-.1-.07-.07.32l.03.46-.38.36c-.21.2-.39.32-.42.28-.02-.04-.07-.04-.12-.02-.05.04-.02.07.08.11.12.05.15.1.11.27-.06.24-.25.41-.41.37-.1-.03-.13.04-.16.31-.14,1.1-.12,1.04-.38,1.03-.3,0-.4-.12-.47-.57-.03-.19-.14-.49-.25-.65-.15-.21-.19-.35-.15-.48.03-.1.07-.29.09-.43.04-.22.03-.24-.13-.17-.16.05-.18.09-.15.42.02.39.09.57.31.81.19.21.15.58-.06.58-.1,0-.15-.05-.15-.18,0-.32-.02-.32-.17-.17-.1.1-.29.17-.54.2-.24.03-.46.11-.55.2-.26.23-.2.31.07.09.35-.29.79-.23,1.3.18.21.17.46.31.56.31.18,0,.22.04.5.44l.18.26.02-.26v-.59c-.03-.47.12-.94.36-1.2.11-.12.27-.37.33-.57.08-.21.23-.42.38-.53.13-.1.28-.28.32-.4.07-.18.12-.21.44-.24.19-.02.47-.08.61-.13l.27-.09-.19-.19c-.15-.16-.16-.19-.06-.21.2-.04.54.18,1.07.68.27.26.64.56.82.67.86.54,1.14.88,1.55,1.94.2.5.23.69.26,1.47.02.84.02.91-.2,1.51-.12.34-.36.91-.52,1.28-.16.36-.46,1.13-.65,1.7-.19.58-.38,1.06-.42,1.09-.04.02-.07.1-.07.16,0,.1,0,.1.1-.02.08-.12.1,0,.13.87.02.57.06,1.04.11,1.1.05.07.06.14,0,.21-.04.06-.07.18-.07.26,0,.13,0,.13.04.02.02-.07.07-.13.1-.13.1,0,.08.47-.04.63-.1.13-.11.13-.22,0-.14-.14-.59-.17-.67-.05-.04.04-.28.06-.67.05-.58-.03-.62-.03-.62-.2,0-.13.05-.16.24-.16h.24l-.21-.12c-.12-.07-.2-.16-.18-.24.03-.15.26-.17.48-.03.29.18.28.1-.03-.13-.37-.27-.41-.43-.34-1.3.06-.78.12-.84.42-.42.11.16.2.25.2.22,0-.11-.31-.68-.41-.74-.05-.03-.08-.12-.06-.21.02-.08-.04-.27-.11-.41-.08-.14-.14-.27-.14-.29s0-.17-.04-.33c-.09-.5.07-.78.89-1.61s1.02-1.15,1.32-2.1c.14-.46.16-.59.08-.6-.07,0-.1.09-.1.23,0,.26-.2.89-.44,1.33-.14.27-.62.72-1.06,1.01-.38.23-1.83.3-1.82.07,0-.08.18-.08.38,0,.07.03.03-.04-.1-.18-.18-.19-.21-.26-.15-.32.07-.07.1-.06.15.02.06.09.07.07.07-.1,0-.11.04-.2.08-.2s.07.05.04.1c-.03.07,0,.1.07.07.06-.02.13-.12.15-.21.02-.1.07-.18.1-.18.02,0,.05-.12.07-.27.02-.26,0-.26-.09-.13-.07.1-.1.1-.11,0,0-.1-.05-.1-.14,0-.08.1-.16.17-.18.17s-.04-.16-.04-.36c0-.21-.02-.38-.06-.4-.03,0-.05.21-.03.51.03.5,0,.57-.2.89-.13.2-.31.54-.42.77-.19.43-.42.77-.82,1.23-.21.24-.62,1.21-.87,2.09-.07.25-.16.4-.28.45-.17.08-.17.09.08.11.24.02.25.04.31.41.05.31.04.42-.06.57-.18.28-.14.31.08.07l.2-.21.06.24c.06.18.04.27-.04.37-.22.25-.22.32,0,.17.25-.18.46-.14.46.1,0,.28-.1.35-.35.26-.3-.1-.53,0-.58.3-.05.19-.07.21-.3.17-.17-.03-.28-.02-.32.05-.03.05-.21.09-.39.1h-.34l.02-.25c.02-.15.06-.25.1-.23.05,0,.09-.03.09-.09,0-.13-.18-.28-.25-.21-.04.03-.04-.03-.03-.13.02-.12.07-.18.16-.18.1.02.11,0,.04-.09-.04-.06-.13-.1-.18-.1-.13,0-.13-.27,0-.32.04-.02,0-.04-.07-.04-.18,0-.23-.19-.09-.27.04-.04.04-.08-.04-.13-.12-.09-.15-.23-.13-.6.02-.25.13-.18.18.1.02.1.03.05.03-.11,0-.18-.05-.29-.11-.29-.26,0-.3-.49-.08-1.27.08-.29.15-.59.15-.67,0-.15.13-.28.19-.2.02,0,.06.24.09.5.04.35.05.22.02-.46-.04-1.06.03-1.44.42-2.29.16-.37.3-.81.36-1.23.07-.44.17-.79.33-1.08.16-.29.18-.36.06-.21-.44.56-.42.55-.42.24,0-.15.04-.35.08-.43.04-.07.06-.14.05-.14-.02,0-.09.1-.16.22-.07.15-.11.43-.12.9,0,.72-.1,1.12-.26,1.18-.17.06-.43-.22-.65-.69-.3-.63-.33-.49-.04.19.23.55.25.61.24,1.49,0,.74-.04,1.04-.19,1.54-.33,1.17-.39,1.6-.35,2.43.03.43.09.94.14,1.15.06.21.11.52.13.71,0,.18.06.39.11.46.07.08.08.21.05.44-.04.24-.02.4.06.55.21.41.1.54-.12.15-.1-.18-.18-.22-.33-.21-.12,0-.25,0-.3-.03-.04-.04-.22-.07-.38-.07-.18,0-.29-.04-.29-.1,0-.05-.08-.12-.18-.14-.13-.04-.18-.1-.18-.23,0-.1.04-.18.08-.18s.07-.05.04-.11c-.02-.07.02-.12.16-.15.13-.03.14-.07.04-.11-.17-.07-.2-.19-.1-.35.04-.07.11-.04.24.1.09.1.24.22.32.27.09.05.09.02,0-.07-.36-.32-.53-.71-.58-1.31l-.05-.59.18.17.18.18-.17-.35c-.14-.28-.17-.46-.17-.94,0-.83.08-1.37.19-1.37.05,0,.11.04.13.1.02.06.12.15.21.19.15.07.16.07.04-.03-.2-.16-.46-1.04-.51-1.77-.05-.74.03-1.96.13-1.96.08,0,.51.31.82.59.19.17.2.18.12.03-.04-.08-.21-.27-.37-.39-.17-.13-.36-.36-.43-.51-.16-.32-.3-.94-.29-1.35,0-.33-.13-.8-.23-.8-.03,0-.06-.07-.06-.15,0-.12.03-.14.13-.1.23.1.82.13,1.07.05.29-.09.46-.25.53-.52.05-.16.03-.15-.1.05-.19.3-.36.39-.75.39-.25,0-.29-.02-.23-.09.05-.05.09-.13.09-.19,0-.09-.02-.09-.16,0-.1.06-.4.13-.69.15-.28.02-.63.06-.75.09-.3.06-.32-.07-.06-.28.1-.08.24-.24.3-.36.15-.27.5-.45.82-.41.14.02.25,0,.25-.03s-.05-.06-.11-.06-.18-.07-.26-.15c-.11-.11-.15-.12-.15-.05,0,.14-.11.21-.45.26-.46.08-1.01-.05-1.42-.33-.21-.14-.53-.31-.72-.39-.23-.09-.35-.18-.35-.25s-.1-.22-.23-.35c-.26-.25-.8-1.06-1.11-1.68-.21-.41-.22-.49-.22-1.25s.02-.85.21-1.23c.31-.62.88-1.11,1.47-1.26.79-.19,1.08-.2,2.74-.02l.04.06ZM49.38,46.01c-.02.1-.05.17-.1.17-.04,0-.08-.07-.09-.17,0-.11.02-.16.1-.16s.11.05.09.16ZM42.93,50.2c.71.03,1.14.13,1.14.26,0,.03-.18.09-.41.14-.79.16-1.95-.14-1.76-.45.03-.04.1-.06.18-.04.07.03.45.07.85.09ZM42.16,50.63c.5.16,1.2.18,1.87.05l.52-.09.38.24c.21.13.38.27.38.3,0,.04-.16.09-.35.11-.2.02-.58.08-.86.12-.59.08-1.19.03-1.84-.17-.46-.15-.84-.44-.74-.59.06-.11.16-.1.63.04h0ZM46.2,51.31c0,.06-.12.23-.26.39l-.25.27v-.27c0-.15.05-.32.11-.38.15-.15.4-.15.4,0h0ZM52.52,57.24c.07.2.05.25-.13.25-.1,0-.2.03-.22.06-.03.04.02.05.1.03.25-.06.25.17-.03.84-.14.36-.31.8-.38.99-.07.19-.24.44-.38.56-.13.12-.23.23-.21.26.09.08.16.05.21-.12.05-.14.06-.15.13-.04.04.06.12.1.18.08.11-.04.12,1.56,0,1.63-.04.02-.11.12-.16.2l-.09.15.21-.15c.24-.19.43-.2.55-.05.18.21.06.37-.27.37-.18,0-.35.05-.44.12-.2.18-.31.16-.36-.05-.02-.1-.09-.2-.15-.22s-.1-.12-.1-.21c0-.1-.08-.24-.18-.33-.12-.1-.18-.24-.18-.37,0-.12-.03-.39-.08-.61-.07-.38-.06-.45.23-1.28.26-.76.35-.92.68-1.26.2-.22.42-.49.48-.61.18-.34.5-.48.58-.25h.01ZM57.97,58.67c.09.16.26.38.37.5.18.19.19.21.06.21-.26,0-.76-.3-.81-.48-.02-.1-.06-.24-.09-.32-.03-.09,0-.09.07,0,.16.2.22.16.07-.06-.12-.18-.12-.19.02-.17.08.02.21.16.3.33h.01ZM52.2,62.5c.04.07-.35.45-.45.43-.02,0-.1.04-.16.11-.07.06-.2.11-.29.11-.16,0-.18-.03-.16-.21s.05-.2.27-.19c.18.02.24,0,.24-.12,0-.21.45-.31.56-.14h-.01ZM55.37,62.86c.07.17-.25.41-.47.36-.09-.02-.18-.02-.19.02s-.23.09-.47.11c-.4.05-.47.03-.61-.11-.23-.24-.17-.41.14-.41.23,0,.26.02.29.22l.04.22.09-.2c.1-.21.41-.28.51-.11.04.05.07.03.11-.07.07-.2.49-.22.56-.03ZM50.85,63.01c.06.1.02.17-.18.34-.14.12-.27.2-.3.19-.1-.06-.06-.51.03-.6.12-.12.35-.08.45.07ZM50.2,63.47c.18.13.1.29-.22.4-.24.08-.29.08-.34,0s-.07-.07-.07.03c0,.19-.19.23-.41.09-.33-.22-.15-.67.19-.48.13.07.18.07.23-.03.08-.15.42-.15.61,0h.01ZM47.22,63.63c.17.34-.02.65-.25.39-.17-.2-.2-.29-.15-.41.06-.16.3-.15.4.02ZM47.94,64.05c.03.27-.11.35-.39.25-.12-.04-.18-.13-.18-.24,0-.24.07-.28.33-.26.19.02.22.06.24.25ZM48.62,64.01c.11.21.05.27-.27.31-.29.03-.35-.02-.29-.28.06-.23.44-.25.56-.03Z"/>
      <path class="st10" d="M50.87,47.64c-.13.13-.11.39.04.52.17.16.26.16.21.02-.2-.54.71-.33.95.2.05.13.18.44.28.66.12.27.23.43.3.43.1,0,.09-.04-.06-.21-.1-.13-.22-.4-.27-.61-.12-.53-.17-.62-.52-.87-.32-.24-.76-.3-.93-.14Z"/>
      <path class="st10" d="M50.66,48.39c-.22.15-.44.92-.35,1.19.04.13.06.3.03.4-.02.1,0,.26.04.36.07.17.07.15.08-.15.02-.46.11-.96.17-.96.15,0,.29-.09.25-.18-.02-.06.03-.14.12-.18.12-.07.18-.06.26.04.1.1.1.16-.02.53-.14.45-.12.72.07.79.18.07.22,0,.06-.13-.12-.1-.13-.13-.03-.46.06-.19.11-.47.11-.61,0-.21-.02-.26-.19-.32s-.24-.05-.38.09c-.1.09-.21.16-.26.16-.15,0-.09-.35.08-.47.09-.07.15-.13.13-.15-.02,0-.1,0-.18.07v-.02Z"/>
      <path class="st10" d="M47.44,48.41c-.22.06-.49.27-.49.38,0,.04.08,0,.18-.08.33-.25.6-.26.93-.04.16.1.33.19.37.17.09-.03-.42-.4-.64-.45-.08-.02-.24,0-.36.02h.01Z"/>
      <path class="st10" d="M49.96,49.03c-.15.25-.23,1.02-.08.79.04-.06.07-.22.08-.35,0-.13.05-.34.11-.46.16-.29.08-.28-.11,0h0Z"/>
      <path class="st10" d="M47.14,49.03c-.25.2-.1.34.37.34.36,0,.4,0,.32-.11-.05-.07-.08-.13-.06-.15.06-.07.28.05.23.12-.05.1.05.08.26-.04.12-.06.08-.11-.11-.15-.77-.12-.87-.12-1.02-.02h.01ZM47.46,49.15c0,.1-.05.15-.13.15-.19,0-.25-.08-.15-.2.13-.15.29-.12.29.05h0Z"/>
      <path class="st10" d="M49.52,50.15c-.07.08-.04.09.1.06.12-.02.24.02.33.1.08.07.15.1.15.06,0-.11-.25-.32-.38-.32-.07,0-.15.04-.2.1Z"/>
      <path class="st10" d="M49.95,50.94s.04.05.07.03c.04-.02.07-.06.07-.08,0,0-.03-.03-.07-.03s-.07.04-.07.08Z"/>
      <path class="st10" d="M50.88,51.25c.02.07.07.11.09.09s0-.08-.05-.13c-.07-.07-.08-.06-.04.04Z"/>
      <path class="st10" d="M47.77,52.72c.1.46.27.91.35.99.05.04,0-.18-.11-.52-.22-.64-.32-.83-.24-.46h0Z"/>
      <path class="st10" d="M55.65,53.16c.02.1.06.33.1.52l.06.35v-.33c0-.18-.03-.41-.1-.52-.1-.18-.11-.18-.06-.02Z"/>
      <path class="st10" d="M48.66,59.13c0,.08.02.1.04.04.02-.05.02-.12,0-.14-.02-.03-.04,0-.04.1Z"/>
      <path class="st10" d="M48.59,59.45c0,.1,0,.14.04.09,0-.04.02-.13,0-.18-.02-.04-.04,0-.04.1h0Z"/>
    </g>
    <g>
      <text class="st8" transform="translate(103.11 44.73)"><tspan x="0" y="0">หน่วยสาธิตการสร้างเสริมสุขภาพเด็กเล็ก</tspan></text>
      <text class="st9" transform="translate(103.11 64.03)"><tspan x="0" y="0">คณะพยาบาลศาสตร์ มหาวิทยาลัยเชียงใหม่</tspan></text>
    </g>
  </g>
</svg>